<svg width="20" height="20" fill="none" xmlns="http://www.w3.org/2000/svg"><g clip-path="url(#clip0_59_2316)" stroke="#828282" stroke-width="2" stroke-linecap="round" stroke-linejoin="round"><path d="M18.784 5.35a2.316 2.316 0 00-1.617-1.666c-1.434-.35-7.167-.35-7.167-.35s-5.733 0-7.167.383a2.317 2.317 0 00-1.616 1.666 24.166 24.166 0 00-.384 4.409 24.22 24.22 0 00.384 4.441 2.317 2.317 0 001.616 1.6c1.434.384 7.167.384 7.167.384s5.733 0 7.167-.383a2.316 2.316 0 001.616-1.667c.26-1.444.39-2.908.384-4.375.01-1.49-.12-2.976-.384-4.442v0z"/><path d="M8.125 12.517l4.792-2.725-4.792-2.725v5.45z"/></g><defs><clipPath id="clip0_59_2316"><path fill="#fff" d="M0 0h20v20H0z"/></clipPath></defs></svg>