<svg width="12" height="12" fill="none" xmlns="http://www.w3.org/2000/svg"><path d="M9.164 11.25c-.457 0-1.1-.166-2.062-.703-1.17-.657-2.076-1.262-3.24-2.423C2.74 7.002 2.194 6.276 1.43 4.885.566 3.315.714 2.492.878 2.14c.196-.42.485-.672.86-.921a4.133 4.133 0 01.735-.385c.116-.052.292-.131.514-.047.15.056.282.17.49.375.425.42 1.007 1.355 1.222 1.815.144.31.24.514.24.743 0 .268-.135.475-.3.699-.03.042-.06.082-.09.12-.178.235-.217.303-.192.424.053.243.442.966 1.083 1.605.64.64 1.343 1.005 1.587 1.057.126.027.195-.014.437-.199.035-.026.07-.054.108-.081.25-.186.447-.317.71-.317.229 0 .424.098.747.262.422.212 1.386.787 1.808 1.213.206.207.32.34.376.488.085.223.005.398-.046.516a4.128 4.128 0 01-.387.734c-.25.373-.502.661-.923.857a1.58 1.58 0 01-.693.152z" fill="#fff"/></svg>