<svg width="16" height="16" viewBox="0 0 16 16" fill="none" xmlns="http://www.w3.org/2000/svg">
<path d="M12.6668 5.99992C12.6668 5.38708 12.5461 4.78025 12.3116 4.21406C12.0771 3.64788 11.7333 3.13343 11.3 2.70009C10.8667 2.26675 10.3522 1.923 9.78602 1.68848C9.21983 1.45396 8.613 1.33325 8.00016 1.33325C7.38733 1.33325 6.78049 1.45396 6.21431 1.68848C5.64812 1.923 5.13367 2.26675 4.70033 2.70009C4.26699 3.13343 3.92325 3.64788 3.68872 4.21406C3.4542 4.78025 3.3335 5.38708 3.3335 5.99992C3.3335 6.92458 3.60683 7.78458 4.07016 8.50992H4.06483C5.63816 10.9733 8.00016 14.6666 8.00016 14.6666L11.9355 8.50992H11.9308C12.4111 7.76083 12.6665 6.88975 12.6668 5.99992ZM8.00016 7.99992C7.46973 7.99992 6.96102 7.7892 6.58595 7.41413C6.21088 7.03906 6.00016 6.53035 6.00016 5.99992C6.00016 5.46949 6.21088 4.96078 6.58595 4.58571C6.96102 4.21063 7.46973 3.99992 8.00016 3.99992C8.5306 3.99992 9.03931 4.21063 9.41438 4.58571C9.78945 4.96078 10.0002 5.46949 10.0002 5.99992C10.0002 6.53035 9.78945 7.03906 9.41438 7.41413C9.03931 7.7892 8.5306 7.99992 8.00016 7.99992Z" fill="#CC3333"/>
</svg>
