<svg width="20" height="20" viewBox="0 0 20 20" fill="none" xmlns="http://www.w3.org/2000/svg">
<g clip-path="url(#clip0_59_2316)">
<path d="M18.7835 5.35016C18.6845 4.95467 18.4829 4.59231 18.199 4.29967C17.9152 4.00703 17.5591 3.79448 17.1668 3.6835C15.7335 3.3335 10.0001 3.3335 10.0001 3.3335C10.0001 3.3335 4.26682 3.3335 2.83348 3.71683C2.44119 3.82782 2.08513 4.04036 1.80127 4.333C1.51741 4.62564 1.31581 4.988 1.21682 5.3835C0.954496 6.83813 0.826181 8.31375 0.833484 9.79183C0.824134 11.281 0.952457 12.7679 1.21682 14.2335C1.32595 14.6167 1.53207 14.9653 1.81527 15.2456C2.09847 15.5258 2.44917 15.7283 2.83348 15.8335C4.26682 16.2168 10.0001 16.2168 10.0001 16.2168C10.0001 16.2168 15.7335 16.2168 17.1668 15.8335C17.5591 15.7225 17.9152 15.51 18.199 15.2173C18.4829 14.9247 18.6845 14.5623 18.7835 14.1668C19.0438 12.7232 19.1721 11.2588 19.1668 9.79183C19.1762 8.30262 19.0478 6.81574 18.7835 5.35016V5.35016Z" stroke="#828282" stroke-width="2" stroke-linecap="round" stroke-linejoin="round"/>
<path d="M8.125 12.5169L12.9167 9.79189L8.125 7.06689V12.5169Z" stroke="#828282" stroke-width="2" stroke-linecap="round" stroke-linejoin="round"/>
</g>
<defs>
<clipPath id="clip0_59_2316">
<rect width="20" height="20" fill="white"/>
</clipPath>
</defs>
</svg>
