<svg width="12" height="12" viewBox="0 0 12 12" fill="none" xmlns="http://www.w3.org/2000/svg">
<path d="M9.1642 11.2498C8.7067 11.2498 8.06405 11.0843 7.1017 10.5467C5.93147 9.89041 5.02631 9.28455 3.86241 8.12369C2.74022 7.00221 2.19412 6.27611 1.42983 4.88533C0.56639 3.31502 0.713577 2.49189 0.878109 2.1401C1.07405 1.71963 1.36326 1.46814 1.73709 1.21853C1.94943 1.07942 2.17413 0.960162 2.40834 0.862283C2.43178 0.852204 2.45358 0.842595 2.47303 0.833923C2.58905 0.781658 2.76483 0.702673 2.98748 0.787048C3.13608 0.842829 3.26873 0.95697 3.47639 1.16205C3.90225 1.58205 4.4842 2.51744 4.69889 2.97681C4.84303 3.28642 4.93842 3.4908 4.93866 3.72002C4.93866 3.98838 4.80366 4.19533 4.63983 4.41869C4.60912 4.46064 4.57866 4.50072 4.54912 4.53963C4.37076 4.774 4.33162 4.84174 4.35741 4.96267C4.40967 5.20572 4.79944 5.92924 5.43998 6.56838C6.08053 7.20752 6.78319 7.57267 7.02717 7.62471C7.15327 7.65166 7.22241 7.61088 7.46428 7.42619C7.49897 7.39971 7.53459 7.37228 7.57186 7.34486C7.8217 7.159 8.01905 7.02752 8.28108 7.02752H8.28248C8.51053 7.02752 8.70577 7.12642 9.0292 7.28955C9.45108 7.50236 10.4146 8.07682 10.8372 8.50314C11.0427 8.71033 11.1573 8.84252 11.2133 8.99088C11.2977 9.21424 11.2183 9.38932 11.1665 9.5065C11.1578 9.52596 11.1482 9.54728 11.1381 9.57096C11.0395 9.80476 10.9195 10.029 10.7797 10.2408C10.5306 10.6135 10.2782 10.902 9.85678 11.0981C9.64039 11.2005 9.40357 11.2523 9.1642 11.2498Z" fill="white"/>
</svg>
