<svg width="8" height="10" viewBox="0 0 8 10" fill="none" xmlns="http://www.w3.org/2000/svg">
<path d="M7.5 3.5C7.5 3.04037 7.40947 2.58525 7.23358 2.16061C7.05769 1.73597 6.79988 1.35013 6.47487 1.02513C6.14987 0.700121 5.76403 0.442313 5.33939 0.266422C4.91475 0.0905301 4.45963 0 4 0C3.54037 0 3.08525 0.0905301 2.66061 0.266422C2.23597 0.442313 1.85013 0.700121 1.52513 1.02513C1.20012 1.35013 0.942313 1.73597 0.766422 2.16061C0.59053 2.58525 0.5 3.04037 0.5 3.5C0.5 4.1935 0.705 4.8385 1.0525 5.3825H1.0485C2.2285 7.23 4 10 4 10L6.9515 5.3825H6.948C7.3082 4.82068 7.49977 4.16737 7.5 3.5ZM4 5C3.60218 5 3.22064 4.84196 2.93934 4.56066C2.65804 4.27936 2.5 3.89782 2.5 3.5C2.5 3.10218 2.65804 2.72064 2.93934 2.43934C3.22064 2.15804 3.60218 2 4 2C4.39782 2 4.77936 2.15804 5.06066 2.43934C5.34196 2.72064 5.5 3.10218 5.5 3.5C5.5 3.89782 5.34196 4.27936 5.06066 4.56066C4.77936 4.84196 4.39782 5 4 5Z" fill="white"/>
</svg>
