<svg width="46" height="46" viewBox="0 0 46 46" fill="none" xmlns="http://www.w3.org/2000/svg">
<g filter="url(#filter0_d_1946_7)">
<circle cx="23" cy="23" r="16" fill="white"/>
</g>
<path d="M27.6668 20.9999C27.6668 20.3871 27.5461 19.7802 27.3116 19.2141C27.0771 18.6479 26.7333 18.1334 26.3 17.7001C25.8667 17.2667 25.3522 16.923 24.786 16.6885C24.2198 16.454 23.613 16.3333 23.0002 16.3333C22.3873 16.3333 21.7805 16.454 21.2143 16.6885C20.6481 16.923 20.1337 17.2667 19.7003 17.7001C19.267 18.1334 18.9232 18.6479 18.6887 19.2141C18.4542 19.7802 18.3335 20.3871 18.3335 20.9999C18.3335 21.9246 18.6068 22.7846 19.0702 23.5099H19.0648C20.6382 25.9733 23.0002 29.6666 23.0002 29.6666L26.9355 23.5099H26.9308C27.4111 22.7608 27.6665 21.8897 27.6668 20.9999ZM23.0002 22.9999C22.4697 22.9999 21.961 22.7892 21.5859 22.4141C21.2109 22.0391 21.0002 21.5304 21.0002 20.9999C21.0002 20.4695 21.2109 19.9608 21.5859 19.5857C21.961 19.2106 22.4697 18.9999 23.0002 18.9999C23.5306 18.9999 24.0393 19.2106 24.4144 19.5857C24.7895 19.9608 25.0002 20.4695 25.0002 20.9999C25.0002 21.5304 24.7895 22.0391 24.4144 22.4141C24.0393 22.7892 23.5306 22.9999 23.0002 22.9999Z" fill="#CC3333"/>
<defs>
<filter id="filter0_d_1946_7" x="0" y="0" width="46" height="46" filterUnits="userSpaceOnUse" color-interpolation-filters="sRGB">
<feFlood flood-opacity="0" result="BackgroundImageFix"/>
<feColorMatrix in="SourceAlpha" type="matrix" values="0 0 0 0 0 0 0 0 0 0 0 0 0 0 0 0 0 0 127 0" result="hardAlpha"/>
<feMorphology radius="3" operator="erode" in="SourceAlpha" result="effect1_dropShadow_1946_7"/>
<feOffset/>
<feGaussianBlur stdDeviation="5"/>
<feColorMatrix type="matrix" values="0 0 0 0 0 0 0 0 0 0 0 0 0 0 0 0 0 0 0.2 0"/>
<feBlend mode="normal" in2="BackgroundImageFix" result="effect1_dropShadow_1946_7"/>
<feBlend mode="normal" in="SourceGraphic" in2="effect1_dropShadow_1946_7" result="shape"/>
</filter>
</defs>
</svg>
