<svg width="20" height="20" viewBox="0 0 20 20" fill="none" xmlns="http://www.w3.org/2000/svg">
<path d="M10 0C4.48667 0 0 4.48667 0 10C0 15.5133 4.48667 20 10 20C15.5133 20 20 15.5133 20 10C20 4.48667 15.5133 0 10 0ZM10 1.66667C14.6125 1.66667 18.3333 5.3875 18.3333 10C18.3354 11.995 17.62 13.9242 16.3178 15.4355C15.0156 16.9468 13.2133 17.9396 11.24 18.2325V12.43H13.6133L13.9858 10.0192H11.24V8.7025C11.24 7.7025 11.5692 6.81333 12.505 6.81333H14.0092V4.71C13.745 4.67417 13.1858 4.59667 12.1292 4.59667C9.9225 4.59667 8.62917 5.76167 8.62917 8.41667V10.0192H6.36083V12.43H8.62917V18.2117C6.68313 17.8914 4.91436 16.8896 3.63891 15.3853C2.36346 13.881 1.66441 11.9722 1.66667 10C1.66667 5.3875 5.3875 1.66667 10 1.66667Z" fill="white"/>
</svg>
