<svg width="41" height="41" viewBox="0 0 41 41" fill="none" xmlns="http://www.w3.org/2000/svg">
<g clip-path="url(#clip0_59_722)">
<path d="M27.3107 17.1214C27.9939 16.4452 28.4179 15.5078 28.4179 14.4729C28.4179 12.4175 26.7453 10.7453 24.6894 10.7453C23.1052 10.7453 21.7011 11.7496 21.1769 13.2212C20.9571 13.1806 20.7311 13.1584 20.4997 13.1584C20.2684 13.1584 20.0424 13.1806 19.8226 13.2212C19.2983 11.7495 17.8941 10.7453 16.31 10.7453C14.2542 10.7453 12.5816 12.4175 12.5816 14.4729C12.5816 15.5078 13.0056 16.4452 13.6888 17.1214C12.0501 18.0549 10.9951 19.8225 10.9951 21.745C10.9951 22.0767 11.264 22.3456 11.5957 22.3456C11.9274 22.3456 12.1963 22.0767 12.1963 21.745C12.1963 20.0471 13.2593 18.5052 14.8438 17.9006C15.2941 18.0939 15.7897 18.2014 16.3101 18.2014C16.5393 18.2014 16.7662 18.1793 16.9884 18.1383C17.1782 18.6693 17.4849 19.145 17.8778 19.5342C16.2242 20.4704 15.185 22.225 15.185 24.1583C15.185 24.4901 15.4539 24.7589 15.7856 24.7589C16.1173 24.7589 16.3862 24.4901 16.3862 24.1583C16.3862 22.5012 17.3724 21.0133 18.8987 20.3677C18.9395 20.3504 18.9773 20.3289 19.012 20.3043C19.4681 20.5036 19.971 20.6149 20.4997 20.6149C21.0202 20.6149 21.5159 20.5074 21.9663 20.3139C23.55 20.9186 24.6133 22.462 24.6133 24.1583C24.6133 24.4901 24.8822 24.7589 25.2139 24.7589C25.5455 24.7589 25.8145 24.4901 25.8145 24.1583C25.8145 22.2376 24.7593 20.4685 23.121 19.5347C23.5142 19.1455 23.8211 18.6696 24.0111 18.1383C24.2333 18.1793 24.4602 18.2014 24.6893 18.2014C25.2097 18.2014 25.7053 18.0939 26.1556 17.9006C27.74 18.5052 28.8031 20.0469 28.8031 21.745C28.8031 22.0767 29.072 22.3456 29.4036 22.3456C29.7353 22.3456 30.0042 22.0767 30.0042 21.745C30.0044 19.8224 28.9494 18.0549 27.3107 17.1214V17.1214ZM16.7716 16.8867C16.7716 16.9103 16.7729 16.9335 16.7733 16.957C16.6221 16.9852 16.4671 17.0002 16.3101 17.0002C14.9166 17.0002 13.7828 15.8666 13.7828 14.4729C13.7828 13.0799 14.9166 11.9465 16.3101 11.9465C17.3852 11.9465 18.3376 12.6287 18.692 13.6276C17.5477 14.2648 16.7716 15.4866 16.7716 16.8867V16.8867ZM17.9728 16.8867C17.9728 15.4933 19.1064 14.3596 20.4998 14.3596C21.8932 14.3596 23.0268 15.4932 23.0268 16.8867C23.0268 18.2801 21.8932 19.4137 20.4998 19.4137C19.1064 19.4137 17.9728 18.28 17.9728 16.8867ZM24.2262 16.957C24.2266 16.9335 24.2279 16.9102 24.2279 16.8867C24.2279 15.4866 23.4518 14.2649 22.3075 13.6276C22.6619 12.6287 23.6143 11.9465 24.6894 11.9465C26.083 11.9465 27.2167 13.0799 27.2167 14.473C27.2167 15.8666 26.083 17.0003 24.6894 17.0003C24.5324 17.0002 24.3774 16.9852 24.2262 16.957V16.957Z" fill="white"/>
<path d="M36.0536 25.9564V15.0396C37.5507 14.757 38.6868 13.4402 38.6868 11.8623C38.6868 10.0789 37.2361 8.62815 35.4527 8.62815C34.4726 8.62815 33.5936 9.06698 33.0001 9.75774L23.5518 4.30238C23.6693 3.96773 23.734 3.60834 23.734 3.23397C23.734 1.45078 22.2832 0 20.5 0C18.7167 0 17.2658 1.45078 17.2658 3.23405C17.2658 3.60842 17.3304 3.96773 17.448 4.30246L7.99977 9.75774C7.40623 9.06698 6.5272 8.62815 5.54712 8.62815C3.76377 8.62815 2.31299 10.0789 2.31299 11.8623C2.31299 13.4402 3.44914 14.757 4.94621 15.0396V25.9564C3.44914 26.2389 2.31299 27.5558 2.31299 29.1337C2.31299 30.9171 3.76377 32.3678 5.54712 32.3678C6.52568 32.3678 7.40342 31.9304 7.99697 31.2415L17.4479 36.6979C17.3304 37.0324 17.2658 37.3917 17.2658 37.7659C17.2658 39.5493 18.7166 41.0001 20.5 41.0001C22.2833 41.0001 23.7341 39.5493 23.7341 37.7659C23.7341 37.3917 23.6695 37.0324 23.552 36.6979L33.0029 31.2415C33.5965 31.9305 34.4742 32.3678 35.4528 32.3678C37.2361 32.3678 38.6869 30.9171 38.6869 29.1337C38.6868 27.5557 37.5506 26.2389 36.0536 25.9564V25.9564ZM35.4527 9.82933C36.5737 9.82933 37.4857 10.7413 37.4857 11.8623C37.4857 12.9832 36.5737 13.8952 35.4527 13.8952C34.3318 13.8952 33.4198 12.9832 33.4198 11.8623C33.4198 10.7413 34.3318 9.82933 35.4527 9.82933ZM20.5 1.20118C21.6209 1.20118 22.5329 2.11311 22.5329 3.23405C22.5329 4.35395 21.6226 5.26525 20.5031 5.26693C20.502 5.26693 20.501 5.26677 20.5 5.26677C20.4989 5.26677 20.4979 5.26693 20.4968 5.26693C19.3773 5.26525 18.467 4.35395 18.467 3.23405C18.467 2.11311 19.3789 1.20118 20.5 1.20118V1.20118ZM3.51417 11.8623C3.51417 10.7413 4.42618 9.82933 5.54712 9.82933C6.66806 9.82933 7.58008 10.7413 7.58008 11.8623C7.58008 12.9832 6.66806 13.8952 5.54712 13.8952C4.42618 13.8952 3.51417 12.9832 3.51417 11.8623ZM5.54712 31.1666C4.42618 31.1666 3.51417 30.2546 3.51417 29.1336C3.51417 28.0127 4.42618 27.1007 5.54712 27.1007C6.66806 27.1007 7.58008 28.0127 7.58008 29.1336C7.58008 30.2546 6.66806 31.1666 5.54712 31.1666ZM20.5 39.7988C19.379 39.7988 18.467 38.8868 18.467 37.7659C18.467 36.6449 19.379 35.7329 20.5 35.7329C21.6209 35.7329 22.5329 36.6449 22.5329 37.7659C22.5329 38.8868 21.6209 39.7988 20.5 39.7988ZM22.95 35.6584C22.4809 35.1138 21.8343 34.727 21.1005 34.5886V32.2748C21.1005 31.943 20.8316 31.6742 20.4999 31.6742C20.1682 31.6742 19.8993 31.943 19.8993 32.2748V34.5886C19.1655 34.727 18.5189 35.1138 18.0498 35.6584L8.599 30.2021C8.71655 29.8674 8.78118 29.5081 8.78118 29.1337C8.78118 28.759 8.71639 28.3993 8.59868 28.0643L10.603 26.9068C10.8903 26.7409 10.9886 26.3736 10.8228 26.0863C10.6569 25.7991 10.2896 25.7008 10.0023 25.8666L7.99617 27.0252C7.52715 26.4811 6.88075 26.0946 6.14731 25.9564V15.0396C6.88099 14.9013 7.52755 14.5146 7.99657 13.9703L10.0054 15.1304C10.1 15.1851 10.2033 15.211 10.3052 15.211C10.5127 15.211 10.7146 15.1033 10.8258 14.9107C10.9917 14.6235 10.8933 14.2561 10.6061 14.0902L8.59876 12.931C8.71631 12.5962 8.78102 12.2367 8.78102 11.8623C8.78102 11.4894 8.71687 11.1315 8.6002 10.798L18.0498 5.3418C18.5188 5.88618 19.1654 6.27296 19.899 6.41133V8.72536C19.899 9.05713 20.168 9.32595 20.4996 9.32595C20.8313 9.32595 21.1002 9.05713 21.1002 8.72536V6.41133C21.8339 6.27296 22.4805 5.88618 22.9495 5.3418L32.3991 10.798C32.2825 11.1315 32.2183 11.4894 32.2183 11.8623C32.2183 12.2367 32.283 12.5962 32.4005 12.931L30.3932 14.0902C30.1059 14.2561 30.0075 14.6235 30.1735 14.9107C30.2847 15.1033 30.4866 15.211 30.694 15.211C30.7959 15.211 30.8993 15.1851 30.9939 15.1304L33.0027 13.9703C33.4718 14.5146 34.1184 14.9013 34.852 15.0396V25.9564C34.1185 26.0946 33.4722 26.4811 33.0031 27.0252L30.997 25.8666C30.7097 25.701 30.3424 25.7991 30.1765 26.0863C30.0106 26.3736 30.109 26.7409 30.3962 26.9068L32.4006 28.0643C32.2829 28.3993 32.2181 28.759 32.2181 29.1337C32.2181 29.5081 32.2827 29.8675 32.4003 30.2021L22.95 35.6584ZM35.4527 31.1666C34.3318 31.1666 33.4198 30.2546 33.4198 29.1336C33.4198 28.0127 34.3318 27.1007 35.4527 27.1007C36.5737 27.1007 37.4857 28.0127 37.4857 29.1336C37.4857 30.2546 36.5737 31.1666 35.4527 31.1666Z" fill="white"/>
<path d="M25.53 26.7054H23.7427C23.411 26.7054 23.1421 26.9742 23.1421 27.306C23.1421 27.6378 23.411 27.9066 23.7427 27.9066H25.53C25.8617 27.9066 26.1306 27.6378 26.1306 27.306C26.1306 26.9742 25.8617 26.7054 25.53 26.7054Z" fill="white"/>
<path d="M25.53 29.0577H15.4692C15.1376 29.0577 14.8687 29.3265 14.8687 29.6583C14.8687 29.9901 15.1376 30.2589 15.4692 30.2589H25.5301C25.8618 30.2589 26.1307 29.9901 26.1307 29.6583C26.1307 29.3265 25.8617 29.0577 25.53 29.0577Z" fill="white"/>
<path d="M15.4692 27.9066H15.4776C15.8093 27.9066 16.0782 27.6378 16.0782 27.306C16.0782 26.9742 15.8093 26.7054 15.4776 26.7054H15.4692C15.1376 26.7054 14.8687 26.9742 14.8687 27.306C14.8687 27.6378 15.1376 27.9066 15.4692 27.9066Z" fill="white"/>
<path d="M17.5581 27.9066C17.8898 27.9066 18.1587 27.6378 18.1587 27.306C18.1587 26.9742 17.8898 26.7054 17.5581 26.7054H17.5498C17.2181 26.7054 16.9492 26.9742 16.9492 27.306C16.9492 27.6378 17.2181 27.9066 17.5498 27.9066H17.5581Z" fill="white"/>
<path d="M19.6382 27.9066C19.9699 27.9066 20.2388 27.6378 20.2388 27.306C20.2388 26.9742 19.9699 26.7054 19.6382 26.7054H19.6299C19.2982 26.7054 19.0293 26.9742 19.0293 27.306C19.0293 27.6378 19.2982 27.9066 19.6299 27.9066H19.6382Z" fill="white"/>
</g>
<defs>
<clipPath id="clip0_59_722">
<rect width="41" height="41" fill="white"/>
</clipPath>
</defs>
</svg>
